**ABCDEFGHIJKLMNOPQRSTUVWXYZabcdefghijklmnopqrstuvwxyz**************************
**PARASOLID !"#$%&'()*+,-./:;<=>?@[\]^_`{|}~0123456789**************************
**PART1;
MC=unknown;
MC_MODEL=unknown;
MC_ID=unknown;
OS=unknown;
OS_RELEASE=unknown;
FRU=Parasolid 33.0.229;
APPL=Onshape;
SITE=unknown;
USER=unknown;
FORMAT=text;
GUISE=transmit;
KEY=BTGapi::writeModels_.xmt;
FILE=BTGapi::writeModels_.xmt;
DATE=2021-03-12T19:21:58 (UTC);
**PART2;
SCH=SCH_3300229_32001;
USFLD_SIZE=0;
**PART3;
**END_OF_HEADER*****************************************************************
T51 : TRANSMIT FILE created by modeller version 330022923 SCH_3300229_32001_1300
6229 0 12 34 CCCCCCI4 mesh1006 0 I8 polyline1008 0 CCCCCCCDI5 owner1040 0 CCCCCC
I13 boundary_mesh1006 0 I17 boundary_polyline1008 0 CCCA16 index_map_offset0 0 1
 dA9 index_map82 0 A17 node_id_index_map82 0 A20 schema_embedding_map82 0 A5 chi
ld12 0 A14 lowest_node_id0 0 1 dA16 mesh_offset_data206 0 Z1 192 2 3 0 0 0 0 0 0
 1e3 1e-8 0 4 0 1 0 1 1 5 6 7 8 0 0 9 10 11 0 0 0 0 0 0 0 81 255 1 2 152 12 1 13
 0 0 0 14 70 11 CI9 list_type0 0 1 uI10 notransmit0 0 1 lCCCDCCDI12 finger_index
0 0 1 dI12 finger_block1012 0 CZ3 0 4 T1 0 0 7 20 1 15 15 13 255 5 3 0 1 16 17 0
 0 18 0 50 255 6 54 0 17 19 0 0 +.1 0 0 1 0 0 0 0 -1 30 255 7 62 0 10 20 0 0 +.1
 0 -.05 0 -1 0 29 255 8 58 0 11 21 0 .1 -.05 -.05 19 8 CCCCCCCA5 owner12 0 Z9 1
 0 1 18 0 22 V0 16 255 10 34 23 ?24 0 25 7 0 0 1 18 255 11 23 26 24 0 27 8 ?1 81
 1 26 137 28 11 29 0 30 31 32 17 255 24 0 33 34 35 11 36 10 0 37 +18 27 21 38 39
 11 40 21 ?1 81 1 38 135 28 27 41 0 42 30 43 17 39 0 44 45 46 27 37 25 0 47 +18
 40 19 48 49 27 50 51 ?1 29 21 57 0 27 51 8 .1 -.05 .05 29 51 56 0 40 52 21 .1 .
05 .05 29 52 55 0 50 53 51 .1 .05 -.05 18 50 17 54 36 40 55 52 ?1 29 53 41 0 56
 57 52 0 -.05 -.05 18 56 11 58 34 59 60 53 ?1 29 57 40 0 59 61 53 0 -.05 .05 18
 59 13 62 45 55 56 57 ?1 29 61 39 0 55 63 57 0 .05 .05 18 55 15 64 65 50 59 61 ?
1 29 63 38 0 60 0 61 0 .05 -.05 18 60 10 66 67 56 0 63 ?1 81 1 66 124 28 60 68 0
 69 58 70 17 67 0 71 72 73 60 35 74 0 75 -15 255 71 7 0 72 76 0 17 72 0 71 77 67
 55 78 79 0 0 +17 73 0 71 67 77 50 80 81 0 35 +17 35 0 33 24 75 50 67 74 0 0 +16
 74 18 82 ?35 83 79 84 0 0 1 17 75 0 33 35 34 60 85 86 0 78 +15 33 32 0 35 87 0
 17 34 0 33 75 24 56 46 88 0 89 -17 85 0 90 91 78 56 75 86 0 0 -16 86 12 92 ?75
 93 94 95 0 0 1 17 78 0 90 85 96 60 72 79 0 0 -15 90 8 0 78 97 0 17 96 0 90 78 9
1 55 98 99 0 72 -16 79 6 100 ?72 74 99 101 0 0 1 81 1 100 122 28 79 102 0 103 69
 104 16 99 16 105 ?98 79 93 106 0 0 1 30 101 43 0 79 95 106 0 +0 .05 0 0 0 1 30
 95 42 0 86 107 101 0 +0 0 -.05 0 1 0 30 106 44 0 99 101 108 0 +0 0 .05 0 -1 0 3
0 108 45 0 93 106 84 0 +0 -.05 0 0 0 -1 16 93 14 109 ?89 99 86 108 0 0 1 30 84 5
0 0 74 108 110 0 +0 .05 -.05 1 0 0 30 110 51 0 83 84 111 0 +0 .05 .05 1 0 0 16 8
3 20 42 ?77 112 74 110 0 0 1 30 111 52 0 112 110 113 0 +0 -.05 .05 1 0 0 16 112
 22 30 ?114 88 83 111 0 0 1 30 113 53 0 88 111 115 0 +0 -.05 -.05 1 0 0 16 88 24
 31 ?46 81 112 113 0 0 1 30 115 59 0 81 113 116 0 +.1 .05 0 0 0 -1 16 81 25 117
 ?73 118 88 115 0 0 1 30 116 60 0 118 115 20 0 +.1 0 .05 0 1 0 16 118 28 119 ?49
 25 81 116 0 0 1 30 20 61 0 25 116 7 0 +.1 -.05 0 0 0 1 16 25 31 120 ?39 10 118
 20 0 0 1 81 1 120 143 28 25 121 0 122 123 124 80 255 1 28 125 126 9000 0 0 0 0
 3 6 0 0 0 FFTFTFTTFFFFFF1 81 1 121 97 127 25 0 120 128 129 130 81 1 122 142 28
 131 132 133 119 120 134 81 1 123 144 28 87 135 136 120 23 137 82 255 3 124 4 10
 1 14 255 87 33 138 ?131 17 33 5 19 +0 0 131 17 22 81 1 135 110 127 87 0 123 139
 132 140 81 1 136 190 141 87 123 142 133 0 143 81 1 23 145 28 10 128 0 123 144 1
45 82 3 137 4 4 2 81 1 128 96 127 10 0 23 68 121 146 81 1 144 146 28 17 139 147
 23 148 149 82 3 145 4 11 1 14 17 36 150 ?87 0 151 5 6 +0 0 87 0 22 81 1 139 109
 127 17 0 144 152 135 153 81 1 147 172 141 17 144 154 155 156 157 81 1 148 147 2
8 94 152 0 144 158 159 82 3 149 4 5 2 16 94 66 148 ?160 86 0 107 0 0 1 81 1 152
 108 127 94 0 148 161 139 162 81 1 158 148 28 163 164 156 148 165 166 82 3 159 4
 12 1 14 163 68 167 ?168 0 169 16 170 -168 168 168 0 171 81 1 164 115 127 163 0
 158 172 173 174 81 1 156 175 141 163 158 175 147 176 177 81 1 165 149 28 168 17
3 176 158 0 178 82 3 166 4 6 2 14 168 71 179 ?0 163 180 16 170 -163 163 0 163 17
1 81 1 173 116 127 168 0 165 164 181 182 81 1 176 178 141 168 165 183 156 184 18
5 82 3 178 4 7 2 80 1 141 186 187 8038 0 0 0 0 0 0 0 0 0 TTTTTTTTTTTTTF10 81 1 1
83 179 186 168 176 179 175 188 189 81 1 184 181 141 76 103 188 176 190 191 98 25
5 6 185 83 112 104 101 114 101 14 76 2 192 ?0 97 71 5 193 +0 0 0 97 22 81 1 103
 121 28 76 172 184 194 100 195 81 1 188 182 186 76 184 192 183 196 197 81 1 190
 184 141 198 199 196 184 133 200 98 8 191 66 111 120 32 89 77 65 88 14 198 27 20
1 ?97 131 202 5 203 +0 0 97 131 22 81 1 199 140 28 198 204 190 117 119 205 81 1
 196 185 186 198 190 201 188 206 207 81 1 133 187 141 131 122 206 190 136 208 98
 8 200 66 111 120 32 90 77 65 88 14 131 30 209 ?198 87 44 5 210 +0 0 198 87 22 8
1 1 206 188 186 131 133 209 196 142 211 98 8 208 66 111 120 32 89 77 73 78 80 1
 186 212 213 8017 0 0 0 0 0 0 0 0 0 TTTTTTTTTTTTTF3 81 1 209 189 214 131 206 0 2
01 138 215 81 1 142 191 186 87 136 138 206 0 216 84 255 8 211 Box YMIN81 1 138 1
92 214 87 142 0 209 0 217 84 8 216 Box ZMIN80 1 214 0 218 8001 0 0 0 0 3 5 0 0 0
 FFFFTFTFFFFFFF2 83 255 3 217 .647058823529412 .647058823529412 .647058823529412
 79 255 15 218 SDL/TYSA_COLOUR81 1 201 186 214 198 196 0 192 209 219 83 3 215 .6
47058823529412 .647058823529412 .647058823529412 81 1 192 183 214 76 188 0 179 2
01 220 83 3 219 .647058823529412 .647058823529412 .647058823529412 81 1 179 180
 214 168 183 0 167 192 221 83 3 220 .647058823529412 .647058823529412 .647058823
529412 81 1 167 177 214 163 175 0 150 179 222 83 3 221 1 0 0 81 1 175 176 186 16
3 156 167 154 183 223 81 1 150 174 214 17 154 0 224 167 225 83 3 222 1 0 0 81 1
 154 173 186 17 147 150 226 175 227 81 1 224 171 214 97 226 0 0 150 228 83 3 225
 .647058823529412 .647058823529412 .647058823529412 14 97 9 224 ?76 198 90 5 229
 +0 0 76 198 22 81 1 226 170 186 97 155 224 13 154 230 83 3 228 .647058823529412
 .647058823529412 .647058823529412 81 1 155 169 141 97 69 226 231 147 232 81 1 1
3 151 186 1 231 2 0 226 233 84 8 230 Box XMIN81 1 231 150 141 1 194 13 0 155 234
 84 3 233 box81 1 194 120 28 1 235 231 0 103 236 98 3 234 98 111 120 81 1 235 11
8 237 1 181 194 0 0 238 82 3 236 4 0 3 80 1 237 127 239 9000 0 0 0 0 3 5 0 0 0 F
FTFTFTTFFFFFF2 81 1 181 117 127 1 0 235 173 0 240 83 1 238 28 80 1 127 241 242 9
000 0 0 0 0 3 5 0 0 0 FFTFTFTTFFFFFF2 83 1 240 -1 79 13 242 BTI/importTag79 18 2
39 BTI/importMaxCount81 1 69 123 28 97 243 155 100 66 244 98 8 232 66 111 120 32
 88 77 73 78 81 1 243 113 127 97 0 69 204 172 245 82 3 244 4 1 2 81 1 204 112 12
7 198 0 199 132 243 246 81 1 172 114 127 76 0 103 243 164 247 83 1 245 25 83 1 2
47 26 81 1 132 111 127 131 0 122 135 204 248 83 1 246 24 83 1 248 23 50 229 37 0
 97 170 193 0 +0 0 0 -1 0 0 0 0 1 13 22 4 0 0 0 0 0 0 9 17 53 255 170 77 0 168 0
 229 0 +.05 0 0 .01 1 0 0 0 1 0 50 193 46 0 76 229 203 0 +0 .05 0 0 1 0 0 0 1 50
 203 47 0 198 193 210 0 +0 0 .05 0 0 1 1 0 0 50 210 48 0 131 203 19 0 +0 -.05 0
 0 -1 0 0 0 -1 50 19 49 0 87 210 6 0 +0 0 -.05 0 0 -1 -1 0 0 84 8 227 Box XMAX84
 6 223 Sphere79 13 213 SDL/TYSA_NAME15 44 29 0 46 131 0 17 46 0 44 39 89 11 34 8
8 0 0 +17 89 0 44 46 45 56 91 93 0 85 +17 45 0 44 89 39 59 114 112 0 98 -17 91 0
 90 96 85 59 89 93 0 0 -17 114 0 202 49 98 27 45 112 0 0 +17 98 0 202 114 65 59
 96 99 0 91 +15 202 26 0 114 198 0 17 65 0 202 98 49 55 77 83 0 96 -17 49 0 202
 65 114 40 47 118 0 80 +17 77 0 71 73 72 40 65 83 0 0 +17 47 0 151 37 80 27 49 1
18 0 114 -17 80 0 151 47 36 40 73 81 0 77 -15 151 35 0 36 17 0 17 36 0 151 80 37
 50 24 10 0 73 -17 37 0 151 36 47 11 39 25 0 46 -84 8 207 Box ZMAX81 1 117 139 2
8 81 249 0 31 199 250 81 1 119 141 28 118 129 0 199 122 251 82 3 205 4 2 2 81 1
 129 98 127 118 0 119 121 249 252 82 3 251 4 9 1 81 1 249 99 127 81 0 117 129 25
3 254 83 1 252 10 81 1 253 100 127 88 0 31 249 255 256 83 1 254 11 81 1 31 138 2
8 88 253 0 26 117 257 81 1 255 101 127 112 0 30 253 258 259 83 1 256 12 81 1 30
 136 28 112 255 0 38 26 260 81 1 258 102 127 83 0 42 255 261 262 83 1 259 13 81
 1 42 134 28 83 258 0 48 38 263 81 1 261 103 127 74 0 82 258 102 264 83 1 262 14
 81 1 82 132 28 74 261 0 54 48 265 81 1 102 104 127 79 0 100 261 266 267 83 1 26
4 15 81 1 266 105 127 99 0 105 102 268 269 83 1 267 16 81 1 105 130 28 99 266 0
 64 54 270 81 1 268 106 127 93 0 109 266 161 271 83 1 269 17 81 1 109 128 28 93
 268 0 62 64 272 81 1 161 107 127 86 0 92 268 152 273 83 1 271 18 81 1 92 126 28
 86 161 0 58 62 274 83 1 273 19 81 1 58 125 28 56 275 0 66 92 276 81 1 62 127 28
 59 277 0 92 109 278 82 3 274 4 1 1 81 1 277 93 127 59 0 62 279 275 280 82 3 278
 4 2 0 81 1 279 92 127 55 0 64 281 277 282 81 1 275 94 127 56 0 58 277 68 283 83
 1 280 5 81 1 68 95 127 60 0 66 275 128 284 83 1 283 6 83 1 284 7 81 1 64 129 28
 55 279 0 109 105 285 81 1 281 91 127 50 0 54 286 279 287 83 1 282 4 81 1 54 131
 28 50 281 0 105 82 288 81 1 286 90 127 40 0 48 41 281 289 83 1 287 3 81 1 48 13
3 28 40 286 0 82 42 290 81 1 41 89 127 27 0 38 29 286 291 83 1 289 2 81 1 29 88
 127 11 0 26 0 41 292 83 1 291 1 83 1 292 0 82 3 290 4 5 0 82 3 288 4 4 0 82 3 2
85 4 3 0 82 3 276 4 1 0 82 3 272 4 2 1 82 3 270 4 3 1 82 3 265 4 4 1 82 3 263 4
 5 1 82 3 260 4 6 1 82 3 257 4 7 1 82 3 250 4 8 1 84 8 197 Box YMAX82 3 195 4 0
 2 84 6 189 Sphere79 14 187 SDL/TYSA_UNAME83 1 182 28 15 180 73 0 160 168 0 13 1
6 64 0 1 0 163 0 0 18 0 13 171 75 0 0 0 0 0 0 293 163 19 293 74 0 1 0 18 171 V0
 19 18 5 0 1 293 9 5 S0 17 160 0 180 160 160 0 294 94 0 0 +17 294 0 169 294 294
 0 160 94 0 0 -15 169 70 0 294 163 0 98 6 177 83 112 104 101 114 101 83 1 174 27
 83 1 162 20 31 255 107 78 0 94 0 95 0 -.05 0 0 0 0 1 1 0 0 .01 98 8 157 66 111
 120 32 88 77 65 88 83 1 153 21 83 1 146 8 98 8 143 66 111 120 32 90 77 73 78 83
 1 140 22 82 3 134 4 3 2 83 1 130 9 79 9 126 BTI/DetId82 3 104 4 0 1 82 3 70 4 0
 0 82 3 43 4 6 0 82 3 32 4 7 0 74 4 CI16 index_map_offset0 0 1 dCCZ20 15 7 0 0 1
42 181 235 165 136 2 138 0 0 0 0 0 0 0 0 0 0 0 0 0 80 1 12 214 295 8040 0 0 0 0
 3 5 0 0 0 TTTFFFFFFFFFFF2 83 3 14 .647058823529412 .647058823529412 .6470588235
29412 79 17 295 SDL/TYSA_COLOUR_21 0 
