**ABCDEFGHIJKLMNOPQRSTUVWXYZabcdefghijklmnopqrstuvwxyz**************************
**PARASOLID !"#$%&'()*+,-./:;<=>?@[\]^_`{|}~0123456789**************************
**PART1;
MC=unknown;
MC_MODEL=unknown;
MC_ID=unknown;
OS=unknown;
OS_RELEASE=unknown;
FRU=Parasolid 33.0.229;
APPL=Onshape;
SITE=unknown;
USER=unknown;
FORMAT=text;
GUISE=transmit;
KEY=BTGapi::writeModels_.xmt;
FILE=BTGapi::writeModels_.xmt;
DATE=2021-03-12T18:15:20 (UTC);
**PART2;
SCH=SCH_3300229_32001;
USFLD_SIZE=0;
**PART3;
**END_OF_HEADER*****************************************************************
T51 : TRANSMIT FILE created by modeller version 330022923 SCH_3300229_32001_1300
6229 0 12 34 CCCCCCI4 mesh1006 0 I8 polyline1008 0 CCCCCCCDI5 owner1040 0 CCCCCC
I13 boundary_mesh1006 0 I17 boundary_polyline1008 0 CCCA16 index_map_offset0 0 1
 dA9 index_map82 0 A17 node_id_index_map82 0 A20 schema_embedding_map82 0 A5 chi
ld12 0 A14 lowest_node_id0 0 1 dA16 mesh_offset_data206 0 Z1 372 2 3 0 0 0 0 0 0
 1e3 1e-8 0 4 0 1 0 1 1 5 6 7 0 0 0 8 9 0 0 0 0 0 0 0 0 81 255 1 2 336 10 1 11 0
 0 0 12 70 11 CI9 list_type0 0 1 uI10 notransmit0 0 1 lCCCDCCDI12 finger_index0
 0 1 dI12 finger_block1012 0 CZ3 0 4 T1 0 0 8 20 1 13 13 13 255 5 40 0 1 0 14 0
 0 15 0 50 255 6 132 0 14 16 0 0 +-.09 .450000000514 -.449999999179 0 -1 1224606
353822e-28 1 0 0 38 12 CCCCCCCCCCCA17 intersection_data204 0 Z7 245 0 17 18 0 0
 +19 20 21 22 22 23 19 8 CCCCCCCA5 owner12 0 Z8 1 0 1 15 0 24 V0 16 255 9 36 25
 ?26 0 27 18 0 0 1 81 1 25 332 28 9 29 0 30 31 32 17 255 26 0 33 26 26 0 34 9 0
 0 +16 27 29 35 ?36 9 37 38 0 0 1 31 255 18 131 0 9 38 7 0 +0 .450000000514 -.44
9999999179 0 1 -1224606353822e-28 -1 0 0 .09 31 38 126 0 27 39 18 0 +0 .27322330
5 -.376776695 0 .707106782235048 -.707106780138048 -1 0 0 .09 31 39 121 0 37 40
 38 0 +0 .4 .5 0 -1 0 0 0 -1 .05 16 37 22 41 ?42 27 43 39 0 0 1 31 40 118 0 43 4
4 39 0 +0 .07322330470336 -.176776695297 0 -.707106781186548 .707106781186548 0
 -.707106781186548 -.707106781186548 .09 16 43 19 45 ?46 37 17 40 0 0 1 31 44 11
2 0 47 48 40 0 +0 0 0 0 0 -1 -1 0 0 .09 16 47 11 49 ?50 17 51 44 0 0 1 31 48 108
 0 51 0 44 0 +0 0 1.2 0 0 -1 -1 0 0 .09 16 51 5 52 ?53 47 0 48 0 0 1 81 1 52 320
 28 51 54 0 55 56 57 17 53 0 58 53 53 0 59 51 0 0 +15 255 58 8 0 53 60 0 17 59 0
 61 59 59 0 53 51 0 0 -15 61 4 0 59 62 0 14 255 62 3 63 ?0 60 61 5 64 +0 0 0 60
 24 81 1 63 369 65 62 66 0 67 68 69 14 60 7 70 ?62 71 72 5 20 +0 0 62 71 24 50 6
4 106 0 62 0 20 0 +-.09 0 1.2 0 0 1 1 0 0 13 24 2 0 0 0 0 0 0 8 14 14 14 37 68 ?
73 0 33 5 6 -0 0 73 0 24 81 1 68 372 65 14 74 0 63 0 75 14 73 32 76 ?77 14 78 5
 16 +0 0 77 14 24 15 33 38 0 26 14 0 81 1 76 360 65 73 79 0 80 81 82 14 77 30 67
 ?83 73 84 5 85 +0 0 83 73 24 15 78 247 0 34 73 86 54 255 16 128 0 73 85 6 0 +0
 .449999999772 -.199999999179 1 0 0 .25 .09 0 0 1 50 85 127 0 77 87 16 0 +0 .4 .
45 0 1 0 0 0 1 51 255 87 123 0 83 19 85 0 +0 .07322330470336 -.176776695297 0 .7
07106782235048 -.707106780138048 .09 -1 0 0 14 83 25 80 ?88 77 89 5 87 +0 0 88 7
7 24 51 19 119 0 88 90 87 91 +0 .4 .5 0 -1 0 .05 0 0 -1 14 88 20 92 ?71 83 93 5
 19 +0 0 71 83 24 54 90 115 0 71 20 19 0 +0 .25 0 1 0 0 .25 .09 0 0 1 141 255 91
 7 91 91 19 14 71 15 81 ?60 88 94 5 90 +0 0 60 88 24 51 20 109 0 60 64 90 95 +0
 0 1.2 0 0 -1 .09 -1 0 0 141 95 7 95 95 20 81 1 81 363 65 71 96 0 76 67 97 15 94
 250 0 46 71 98 17 46 0 94 46 46 0 99 43 0 0 +15 98 16 0 50 71 0 17 50 0 98 50 5
0 0 100 47 0 0 +17 100 0 72 100 100 0 50 47 0 0 -15 72 251 0 100 60 101 15 101 1
2 0 102 60 58 17 102 0 101 102 102 0 103 17 0 0 +17 103 0 93 103 103 0 102 17 0
 0 -16 17 13 104 ?102 43 47 7 0 0 1 81 1 104 323 28 17 105 0 49 106 107 80 255 1
 28 108 109 9000 0 0 0 0 3 6 0 0 0 FFTFTFTTFFFFFF1 81 1 105 304 110 17 0 104 111
 112 113 81 1 49 322 28 47 112 0 56 104 114 81 1 106 324 28 71 115 116 104 45 11
7 82 255 3 107 4 2 1 81 1 115 312 110 71 0 106 118 119 120 81 1 116 361 121 71 1
06 96 122 123 124 81 1 45 325 28 43 111 0 106 125 126 82 3 117 4 2 2 81 1 111 30
3 110 43 0 45 127 105 128 81 1 125 326 28 88 118 92 45 41 129 82 3 126 4 3 1 81
 1 118 311 110 88 0 125 130 115 131 81 1 92 341 65 88 125 0 0 70 132 81 1 41 327
 28 37 127 0 125 133 134 82 3 129 4 3 2 81 1 127 302 110 37 0 41 135 111 136 81
 1 133 328 28 83 130 137 41 35 138 82 3 134 4 4 1 81 1 130 310 110 83 0 133 139
 118 140 81 1 137 355 121 83 133 141 142 122 143 81 1 35 329 28 27 135 0 133 144
 145 82 3 138 4 4 2 81 1 135 301 110 27 0 35 29 127 146 81 1 144 330 28 77 139 1
23 35 30 147 82 3 145 4 5 1 81 1 139 309 110 77 0 144 148 130 149 81 1 123 364 1
21 77 144 150 116 151 152 81 1 30 331 28 73 148 122 144 25 153 82 3 147 4 5 2 81
 1 148 308 110 73 0 30 154 139 155 81 1 122 358 121 73 30 79 137 116 156 82 3 15
3 4 6 2 80 1 121 157 158 8038 0 0 0 0 0 0 0 0 0 TTTTTTTTTTTTTF10 81 1 79 359 157
 73 122 76 141 96 159 98 255 6 156 87 97 108 108 32 52 80 1 157 160 161 8017 0 0
 0 0 0 0 0 0 0 TTTTTTTTTTTTTF3 81 1 141 356 157 83 137 80 162 79 163 81 1 96 362
 157 71 116 81 79 150 164 84 255 6 159 Wall 481 1 150 365 157 77 123 67 96 66 16
5 84 6 164 Wall 281 1 67 366 65 77 150 0 81 63 166 81 1 66 368 157 62 151 63 150
 74 167 84 13 165 Face Junction81 1 151 367 121 62 55 66 123 168 169 81 1 74 371
 157 14 168 68 66 0 170 84 9 167 Face ZMAX81 1 168 370 121 14 31 74 151 0 171 84
 9 170 Face YMAX81 1 31 333 28 14 154 168 25 0 172 98 9 171 70 97 99 101 32 89 7
7 65 88 81 1 154 307 110 14 0 31 54 148 173 82 3 172 4 7 2 80 1 110 174 175 9000
 0 0 0 0 3 5 0 0 0 FFTFTFTTFFFFFF2 81 1 54 306 110 51 0 52 112 154 176 83 255 1
 173 7 81 1 112 305 110 47 0 49 105 54 177 83 1 176 6 83 1 177 5 79 255 13 175 B
TI/importTag81 1 55 319 28 62 178 151 179 52 180 98 9 169 70 97 99 101 32 90 77
 65 88 81 1 178 314 110 62 0 55 119 181 182 81 1 179 318 28 1 183 184 0 55 185 8
2 3 180 4 0 2 81 1 183 316 186 1 181 179 0 0 187 81 1 184 334 121 1 179 11 0 142
 188 82 3 185 4 0 3 81 1 11 335 157 1 184 2 0 162 189 81 1 142 352 121 60 56 162
 184 137 190 98 12 188 70 108 117 105 100 32 82 101 103 105 111 110 81 1 56 321
 28 60 119 142 52 49 191 81 1 162 353 157 60 142 70 11 141 192 98 6 190 87 97 10
8 108 32 49 81 1 70 354 65 60 162 0 92 80 193 84 6 192 Wall 180 1 65 0 194 8001
 0 0 0 0 3 5 0 0 0 FFFFTFTFFFFFFF2 81 1 80 357 65 83 141 0 70 76 195 83 3 193 .6
 .6 .6 83 3 195 .6 .6 .6 79 15 194 SDL/TYSA_COLOUR81 1 119 313 110 60 0 56 115 1
78 196 82 3 191 4 1 2 83 1 196 13 84 12 189 Fluid Region80 1 186 110 197 9000 0
 0 0 0 3 5 0 0 0 FFTFTFTTFFFFFF2 81 1 181 315 110 1 198 183 178 0 199 83 1 187 1
4 81 1 198 253 200 1 0 181 0 0 201 83 1 199 -1 80 1 200 202 203 9000 0 0 0 0 3 5
 0 0 0 TTTFFFFFFFFFFF1 82 1 201 15 79 23 203 ONSHAPE_ORIGINALBODY_ID79 18 197 BT
I/importMaxCount83 1 182 14 83 3 166 0 1 0 84 6 163 Wall 379 13 161 SDL/TYSA_NAM
E79 14 158 SDL/TYSA_UNAME83 1 155 8 98 13 152 70 97 99 101 32 74 117 110 99 116
 105 111 110 83 1 149 9 81 1 29 300 110 9 0 25 0 135 204 83 1 146 1 83 1 204 0 9
8 6 143 87 97 108 108 32 51 83 1 140 10 83 1 136 2 83 3 132 .6 .6 .6 83 1 131 11
 83 1 128 3 98 6 124 87 97 108 108 32 50 83 1 120 12 82 3 114 4 1 1 83 1 113 4 7
9 9 109 BTI/DetId15 93 249 0 103 88 205 15 205 21 0 42 88 0 17 42 0 205 42 42 0
 206 37 0 0 +17 206 0 84 206 206 0 42 37 0 0 -15 84 31 0 206 77 0 17 99 0 207 99
 99 0 46 43 0 0 -15 207 26 0 99 83 0 83 3 97 .6 .6 .6 15 89 248 0 208 83 207 17
 208 0 89 208 208 0 36 27 0 0 -17 36 0 86 36 36 0 208 27 0 0 +15 86 33 0 36 73 0
 17 34 0 78 34 34 0 26 9 0 0 -83 3 82 .6 .6 .6 83 3 75 0 0 1 83 3 69 1 0 0 82 3
 57 4 0 1 82 3 32 4 6 1 19 15 39 0 1 0 8 5 S0 40 255 21 21 0 1 21 .0033915617028
5656 .3810634821761075 ??-1224606353822e-29 .09 .45 .01525172084849725 .08869828
07677776 .452382933614517 .0287453045383017 .0852860332469525 .459089029991941 .
04010598907731845 .0805699053004905 .470141841313805 .0479790803569029 .07614465
08174137 .485928473852995 .0499999343048213 .0748331916298747 .50008105253576 .0
479301837279228 .0761754388750571 .514237186794011 .0421075667372102 .0795421449
514117 .526962062670934 .03152250232932475 .0842990619574009 .538811491170757 .0
159875780233743 .0885686025008102 .547375070965082 -.000679131168151253 .0899974
376349485 .549995387595822 -.01544094453613435 .0886655357612642 .54755604306323
3 -.02852775921225415 .085359047290417 .541062963292092 -.03994605532576065 .080
6493190542318 .530071791830739 -.0478975336222956 .0761959728128794 .51434664674
7622 -.049999642640767 .0748333865049257 .500189039137739 -.0479987382668784 .07
61322607360881 .48599567478285 -.042246979779611 .0794681867133077 .473256913052
134 -.0317568786704638 .0842110483078642 .461380048457961 -.0162862890714022 .08
85141615126231 .452726785720847 -92819631996337e-31 .09 .45 41 3 CI8 term_use0 0
 1 cCZ1 22 H?-92819631996337e-31 .09 .45 204 2 17 INTERSECTION_DATA17 Intersecti
on data7 uv_type0 0 1 u6 values0 1 1 fT84 23 4 0 .31 1.570796326794895 .75 .3099
745683911435 .3113017192322225 1.741081662786985 .747617066385483 .6124893707394
91 .3147139667530475 1.89588442679604 .740910970008059 .930836555352333 .3194300
946995095 2.032665380571095 .729858158686195 1.285511765010894 .3238553491825865
 2.1330578119936 .714071526147005 1.572417378220075 .3251668083701255 2.15982641
9122675 .69991894746424 1.85953541372494 .323824561124943 2.132415787328315 .685
762813205989 2.14033221376709 .3204578550485885 2.05766628961247 .67303793732906
6 2.45945979321031 .315700938042599 1.92863435163892 .661188508829243 2.81612538
2818495 .31143139749919 1.749383867176505 .652624929034918 3.15517569462522 .310
0025623650515 1.563250353313305 .650004612404178 3.455543627488805 .311334464238
736 1.39837725665626 .652443956936768 3.74877436599012 .314640952709583 1.248257
90718899 .658937036707909 4.067091865243175 .3193506809457685 1.110911325475636
 .669928208169262 4.42136537893146 .3238040271871205 1.009605425723726 .68565335
3252378 4.70860818862257 .3251666134950745 .981770131984626 .699810960862261 4.9
962731994679 .323867739263912 1.00827665524784 .71400432521715 5.27673308480946
 .3205318132866925 1.082172855193096 .726743086947866 5.59499868834896 .31578895
1692136 1.210176555625572 .738619951542039 5.9514060349705 .311485838487377 1.38
883510104791 .747273214279153 0 .31 1.570796326794895 .75 74 4 CI16 index_map_of
fset0 0 1 dCCZ20 13 8 0 0 198 181 183 31 168 74 2 68 0 0 0 0 0 0 0 0 0 0 0 0 80
 1 10 65 209 8040 0 0 0 0 3 5 0 0 0 TTTFFFFFFFFFFF2 83 3 12 .6 .6 .6 79 17 209 S
DL/TYSA_COLOUR_21 0 
